<svg width="1080" height="1350" viewBox="0 0 1080 1350" fill="none" xmlns="http://www.w3.org/2000/svg">
    <rect width="1080" height="1350" fill="#F5F7F5"/>
    
      <g transform="translate(72 64)">
    <image href="file:///D:/asistan-web/public/images/asistan-mark.svg" width="48" height="48"/>
    <text x="62" y="37" fill="#06284C" font-family="Arial, Helvetica, sans-serif" font-size="31" font-weight="700" letter-spacing="-1">asistan</text>
    <circle cx="209" cy="12" r="4" fill="#09BEB8"/>
  </g>
      <g transform="translate(72 218)">
    <rect width="240" height="42" rx="21" fill="#DDF9F6"/>
    <text x="22" y="28" fill="#087E80" font-family="Arial, Helvetica, sans-serif" font-size="17" font-weight="700" letter-spacing="2">KİMLER İÇİN?</text>
  </g>
      <text x="72" y="354" fill="#06284C" font-family="Georgia, 'Times New Roman', serif" font-size="76" font-weight="700" letter-spacing="-1">
    <tspan x="72" dy="0">Sağlık ekipleri</tspan><tspan x="72" dy="88">için tasarlandı.</tspan>
  </text>
      <text x="76" y="596" fill="#46708A" font-family="Arial, Helvetica, sans-serif" font-size="30" font-weight="400" letter-spacing="0">
    <tspan x="76" dy="0">Günlük operasyonunuzun ihtiyaçlarına</tspan><tspan x="76" dy="45">uyum sağlayan sade bir altyapı.</tspan>
  </text>
      <g transform="translate(78 790)">
        
          <g transform="translate(0 0)">
            <circle cx="18" cy="18" r="18" fill="#DDF9F6"/>
            <circle cx="18" cy="18" r="6" fill="#09BEB8"/>
            <text x="66" y="28" fill="#06284C" font-family="Arial, Helvetica, sans-serif" font-size="30" font-weight="700">Klinikler ve muayenehaneler</text>
          </g>
        
          <g transform="translate(0 92)">
            <circle cx="18" cy="18" r="18" fill="#DDF9F6"/>
            <circle cx="18" cy="18" r="6" fill="#09BEB8"/>
            <text x="66" y="28" fill="#06284C" font-family="Arial, Helvetica, sans-serif" font-size="30" font-weight="700">Diş hekimleri</text>
          </g>
        
          <g transform="translate(0 184)">
            <circle cx="18" cy="18" r="18" fill="#DDF9F6"/>
            <circle cx="18" cy="18" r="6" fill="#09BEB8"/>
            <text x="66" y="28" fill="#06284C" font-family="Arial, Helvetica, sans-serif" font-size="30" font-weight="700">Fizyoterapi merkezleri</text>
          </g>
        
          <g transform="translate(0 276)">
            <circle cx="18" cy="18" r="18" fill="#DDF9F6"/>
            <circle cx="18" cy="18" r="6" fill="#09BEB8"/>
            <text x="66" y="28" fill="#06284C" font-family="Arial, Helvetica, sans-serif" font-size="30" font-weight="700">Estetik klinikleri</text>
          </g>
        
      </g>
      <g>
    <line x1="72" y1="1244" x2="1008" y2="1244" stroke="#46708A" stroke-opacity=".42"/>
    <text x="72" y="1287" fill="#46708A" font-family="Arial, Helvetica, sans-serif" font-size="20" font-weight="700" letter-spacing="2">ASISTAN.ONLINE</text>
    <text x="974" y="1287" fill="#46708A" font-family="Arial, Helvetica, sans-serif" font-size="20" font-weight="700">06</text>
  </g>
    
  </svg>