<svg width="1080" height="1920" viewBox="0 0 1080 1920" fill="none" xmlns="http://www.w3.org/2000/svg">
    <rect width="1080" height="1920" fill="#001D42"/>
    
    <circle cx="980" cy="170" r="460" fill="#0066A8" fill-opacity=".34"/>
    <circle cx="870" cy="1860" r="520" fill="#08C8C5" fill-opacity=".15"/>
    <g transform="translate(78 104)">
    <rect width="312" height="78" rx="39" fill="#FFFFFF" fill-opacity=".97"/>
    <image href="file:///D:/asistan-web/public/images/asistan-mark.svg" x="18" y="10" width="58" height="58"/>
    <text x="90" y="52" fill="#001D42" font-family="Arial, Helvetica, sans-serif" font-size="37" font-weight="700" letter-spacing="-1">asistan</text>
    <circle cx="266" cy="25" r="5" fill="#05C8BC"/>
  </g>
    <g transform="translate(78 322)">
    <rect width="250" height="58" rx="29" fill="#08C8C5"/>
    <text x="30" y="38" fill="#001D42" font-family="Arial, Helvetica, sans-serif" font-size="21" font-weight="700" letter-spacing="4">YAKINDA</text>
  </g>
    <text x="78" y="610" fill="#FFFFFF" font-family="Arial, Helvetica, sans-serif" font-size="100" font-weight="700" letter-spacing="-1">
    <tspan x="78" dy="0">Asistan</tspan><tspan x="78" dy="116">Rezervasyon</tspan>
  </text>
    <text x="82" y="940" fill="#D8F8FF" font-family="Arial, Helvetica, sans-serif" font-size="40" font-weight="400" letter-spacing="-1">
    <tspan x="82" dy="0">Bölgenizdeki klinikleri keşfedin.</tspan><tspan x="82" dy="62">Uygun saatleri görün.</tspan>
  </text>
    <g transform="translate(86 1220)">
    <circle cx="35" cy="35" r="35" fill="#08C8C5" fill-opacity=".22"/>
    <path d="M18 37l14 14 25-30" stroke="#35E1D0" stroke-width="9" stroke-linecap="round" stroke-linejoin="round"/>
    <text x="102" y="46" fill="#FFFFFF" font-family="Arial, Helvetica, sans-serif" font-size="36" font-weight="700">Yakındaki klinikler</text>
  </g>
    <g transform="translate(86 1370)">
    <circle cx="35" cy="35" r="35" fill="#08C8C5" fill-opacity=".22"/>
    <path d="M18 37l14 14 25-30" stroke="#35E1D0" stroke-width="9" stroke-linecap="round" stroke-linejoin="round"/>
    <text x="102" y="46" fill="#FFFFFF" font-family="Arial, Helvetica, sans-serif" font-size="36" font-weight="700">Uygun randevu saatleri</text>
  </g>
    <text x="80" y="1760" fill="#FFFFFF" font-family="Arial, Helvetica, sans-serif" font-size="34" font-weight="700">GELİŞMELER İÇİN TAKİP EDİN</text>
  <rect x="80" y="1798" width="440" height="7" rx="3.5" fill="#13D5CC"/>
  </svg>