<svg width="1080" height="1920" viewBox="0 0 1080 1920" fill="none" xmlns="http://www.w3.org/2000/svg">
    <rect width="1080" height="1920" fill="#F7FAF8"/>
    
    <g transform="translate(82 92)">
    <image href="file:///D:/asistan-web/public/images/asistan-mark.svg" width="58" height="58"/>
    <text x="74" y="44" fill="#06284C" font-family="Arial, Helvetica, sans-serif" font-size="38" font-weight="700" letter-spacing="-1">asistan</text>
    <circle cx="254" cy="14" r="5" fill="#09BEB8"/>
  </g>
    <g transform="translate(82 280)">
    <rect width="218" height="54" rx="27" fill="#DDF9F6"/>
    <text x="26" y="36" fill="#087E80" font-family="Arial, Helvetica, sans-serif" font-size="20" font-weight="700" letter-spacing="3">OPERASYON</text>
  </g>
    <text x="82" y="500" fill="#06284C" font-family="Georgia, 'Times New Roman', serif" font-size="94" font-weight="700" letter-spacing="-1">
    <tspan x="82" dy="0">Bir klinik günü.</tspan><tspan x="82" dy="108">Tek ekranda.</tspan>
  </text>
    <text x="86" y="790" fill="#46708A" font-family="Arial, Helvetica, sans-serif" font-size="38" font-weight="400" letter-spacing="0">
    <tspan x="86" dy="0">Günlük yoğunluğu ve randevu akışını</tspan><tspan x="86" dy="58">daha görünür hale getirin.</tspan>
  </text>
    <g transform="translate(92 1000)">
    <rect width="896" height="600" rx="36" fill="#FFFFFF" stroke="#D7E7E6" stroke-width="2"/>
    <rect width="896" height="90" rx="36" fill="#F8FBFA"/>
    <circle cx="54" cy="45" r="13" fill="#09BEB8"/>
    <rect x="88" y="34" width="174" height="22" rx="11" fill="#C6DEDD"/>
    <rect x="704" y="30" width="126" height="28" rx="14" fill="#DDF9F6"/>
    <rect x="46" y="150" width="240" height="180" rx="24" fill="#F4F8F7"/>
    <rect x="328" y="150" width="240" height="180" rx="24" fill="#F4F8F7"/>
    <rect x="610" y="150" width="240" height="180" rx="24" fill="#F4F8F7"/>
    <text x="74" y="268" fill="#06284C" font-family="Arial" font-size="72" font-weight="700">12</text>
    <text x="356" y="268" fill="#06284C" font-family="Arial" font-size="72" font-weight="700">04</text>
    <text x="638" y="268" fill="#06284C" font-family="Arial" font-size="72" font-weight="700">86%</text>
    <rect x="46" y="382" width="804" height="170" rx="24" fill="#F8FBFA"/>
    <rect x="114" y="479.04" width="54" height="64.96" rx="13" fill="#A3DADC"/><rect x="226" y="439.6" width="54" height="104.39999999999999" rx="13" fill="#A3DADC"/><rect x="338" y="460.48" width="54" height="83.52" rx="13" fill="#A3DADC"/><rect x="450" y="417.56" width="54" height="126.44" rx="13" fill="#A3DADC"/><rect x="562" y="397.84000000000003" width="54" height="146.16" rx="13" fill="#09BEB8"/><rect x="674" y="430.32" width="54" height="113.67999999999999" rx="13" fill="#A3DADC"/>
  </g>
    <text x="84" y="1770" fill="#087E80" font-family="Arial, Helvetica, sans-serif" font-size="29" font-weight="700">@asistan.kktc</text>
  <rect x="84" y="1808" width="420" height="6" rx="3" fill="#09BEB8"/>
  
  </svg>